<mxfile host="app.diagrams.net" modified="2022-03-26T05:03:02.701Z" agent="5.0 (Windows NT 10.0; Win64; x64) AppleWebKit/537.36 (KHTML, like Gecko) Chrome/96.0.4664.93 Safari/537.36" etag="ujS2AEg8e_yHgKcCzWY5" version="17.2.4" type="github">
  <diagram id="Wl7c-aQJNQoxthfdhKPV" name="第 1 页">
    <mxGraphModel dx="2062" dy="1065" grid="1" gridSize="10" guides="1" tooltips="1" connect="1" arrows="1" fold="1" page="1" pageScale="1" pageWidth="850" pageHeight="1100" math="0" shadow="0">
      <root>
        <mxCell id="0" />
        <mxCell id="1" parent="0" />
        <mxCell id="UB-vj33DS_Ypdgstz2jy-1" value="" style="rounded=1;whiteSpace=wrap;html=1;" vertex="1" parent="1">
          <mxGeometry x="270" y="440" width="300" height="250" as="geometry" />
        </mxCell>
        <mxCell id="UB-vj33DS_Ypdgstz2jy-4" value="" style="rounded=1;whiteSpace=wrap;html=1;" vertex="1" parent="1">
          <mxGeometry x="110" y="450" width="120" height="220" as="geometry" />
        </mxCell>
        <mxCell id="UB-vj33DS_Ypdgstz2jy-5" value="" style="rounded=1;whiteSpace=wrap;html=1;" vertex="1" parent="1">
          <mxGeometry x="610" y="455" width="120" height="220" as="geometry" />
        </mxCell>
        <mxCell id="UB-vj33DS_Ypdgstz2jy-6" value="" style="shape=flexArrow;endArrow=classic;html=1;rounded=0;" edge="1" parent="1" source="UB-vj33DS_Ypdgstz2jy-4" target="UB-vj33DS_Ypdgstz2jy-1">
          <mxGeometry width="50" height="50" relative="1" as="geometry">
            <mxPoint x="400" y="570" as="sourcePoint" />
            <mxPoint x="450" y="520" as="targetPoint" />
          </mxGeometry>
        </mxCell>
        <mxCell id="UB-vj33DS_Ypdgstz2jy-7" value="" style="shape=flexArrow;endArrow=classic;html=1;rounded=0;" edge="1" parent="1" source="UB-vj33DS_Ypdgstz2jy-1" target="UB-vj33DS_Ypdgstz2jy-5">
          <mxGeometry width="50" height="50" relative="1" as="geometry">
            <mxPoint x="240" y="571.2" as="sourcePoint" />
            <mxPoint x="280" y="572" as="targetPoint" />
          </mxGeometry>
        </mxCell>
      </root>
    </mxGraphModel>
  </diagram>
</mxfile>
